<?xml version="1.0" encoding="UTF-8"?>
<svg xmlns="http://www.w3.org/2000/svg" xmlns:xlink="http://www.w3.org/1999/xlink" viewBox="0 0 30 30" width="30px" height="30px">
<g id="surface200966723">
<path style=" stroke:none;fill-rule:nonzero;fill:rgb(27.450982%,29.411766%,30.19608%);fill-opacity:1;" d="M 10.675781 28.101562 C 11.101562 27.917969 11.398438 27.492188 11.398438 27 L 11.398438 23.761719 C 11.398438 23.640625 11.410156 23.519531 11.425781 23.394531 C 11.417969 23.394531 11.410156 23.398438 11.398438 23.398438 C 11.398438 23.398438 9.601562 23.398438 9.238281 23.398438 C 8.339844 23.398438 7.558594 23.039062 7.199219 22.320312 C 6.78125 21.539062 6.601562 20.21875 5.519531 19.5 C 5.339844 19.378906 5.460938 19.199219 5.820312 19.199219 C 6.179688 19.261719 6.960938 19.738281 7.441406 20.398438 C 7.980469 21.058594 8.519531 21.601562 9.480469 21.601562 C 10.972656 21.601562 11.773438 21.523438 12.253906 21.265625 C 12.8125 20.433594 13.589844 19.800781 14.398438 19.800781 L 14.398438 19.785156 C 11 19.675781 8.828125 18.546875 7.816406 16.800781 C 5.617188 16.824219 3.703125 17.042969 2.609375 17.222656 C 2.574219 17.027344 2.542969 16.832031 2.519531 16.632812 C 3.597656 16.453125 5.425781 16.242188 7.523438 16.203125 C 7.457031 16.039062 7.398438 15.867188 7.351562 15.695312 C 5.242188 15.585938 3.425781 15.671875 2.4375 15.753906 C 2.425781 15.554688 2.410156 15.355469 2.40625 15.152344 C 3.398438 15.070312 5.164062 14.992188 7.21875 15.085938 C 7.171875 14.785156 7.140625 14.480469 7.140625 14.160156 C 7.140625 13.140625 7.5 12.0625 8.160156 11.160156 C 7.859375 10.140625 7.441406 7.980469 8.28125 7.199219 C 9.902344 7.199219 11.039062 7.980469 11.582031 8.460938 C 12.601562 8.039062 13.738281 7.800781 15 7.800781 C 16.261719 7.800781 17.398438 8.039062 18.359375 8.460938 C 18.898438 7.980469 20.039062 7.199219 21.660156 7.199219 C 22.558594 8.039062 22.078125 10.199219 21.78125 11.160156 C 22.441406 12.058594 22.800781 13.078125 22.738281 14.160156 C 22.738281 14.449219 22.714844 14.730469 22.675781 15.003906 C 24.773438 14.902344 26.589844 14.984375 27.597656 15.066406 C 27.59375 15.269531 27.578125 15.464844 27.566406 15.664062 C 26.5625 15.582031 24.699219 15.496094 22.550781 15.613281 C 22.496094 15.8125 22.433594 16.011719 22.355469 16.199219 C 24.484375 16.226562 26.355469 16.433594 27.484375 16.613281 C 27.457031 16.8125 27.429688 17.011719 27.394531 17.207031 C 26.246094 17.023438 24.289062 16.808594 22.066406 16.796875 C 21.066406 18.523438 18.933594 19.648438 15.601562 19.78125 L 15.601562 19.800781 C 17.160156 19.800781 18.601562 22.140625 18.601562 23.761719 L 18.601562 27 C 18.601562 27.492188 18.898438 27.917969 19.324219 28.101562 C 24.820312 26.28125 28.800781 21.097656 28.800781 15 C 28.800781 7.390625 22.609375 1.199219 15 1.199219 C 7.390625 1.199219 1.199219 7.390625 1.199219 15 C 1.199219 21.097656 5.179688 26.28125 10.675781 28.101562 Z M 10.675781 28.101562 "/>
</g>
</svg>
