<?xml version="1.0" encoding="UTF-8"?>
<svg xmlns="http://www.w3.org/2000/svg" xmlns:xlink="http://www.w3.org/1999/xlink" viewBox="0 0 30 30" width="30px" height="30px">
<g id="surface200958600">
<path style=" stroke:none;fill-rule:nonzero;fill:rgb(27.450982%,29.411766%,30.19608%);fill-opacity:1;" d="M 9.601562 1.800781 C 5.296875 1.800781 1.800781 5.296875 1.800781 9.601562 L 1.800781 20.398438 C 1.800781 24.703125 5.296875 28.199219 9.601562 28.199219 L 20.398438 28.199219 C 24.703125 28.199219 28.199219 24.703125 28.199219 20.398438 L 28.199219 9.601562 C 28.199219 5.296875 24.703125 1.800781 20.398438 1.800781 Z M 22.199219 6.601562 C 22.859375 6.601562 23.398438 7.140625 23.398438 7.800781 C 23.398438 8.460938 22.859375 9 22.199219 9 C 21.539062 9 21 8.460938 21 7.800781 C 21 7.140625 21.539062 6.601562 22.199219 6.601562 Z M 15 8.398438 C 18.640625 8.398438 21.601562 11.359375 21.601562 15 C 21.601562 18.640625 18.640625 21.601562 15 21.601562 C 11.359375 21.601562 8.398438 18.640625 8.398438 15 C 8.398438 11.359375 11.359375 8.398438 15 8.398438 Z M 15 9.601562 C 12.023438 9.601562 9.601562 12.023438 9.601562 15 C 9.601562 17.976562 12.023438 20.398438 15 20.398438 C 17.976562 20.398438 20.398438 17.976562 20.398438 15 C 20.398438 12.023438 17.976562 9.601562 15 9.601562 Z M 15 9.601562 "/>
</g>
</svg>
