<?xml version="1.0" encoding="UTF-8"?>
<svg xmlns="http://www.w3.org/2000/svg" xmlns:xlink="http://www.w3.org/1999/xlink" viewBox="0 0 30 30" width="30px" height="30px">
<g id="surface203160004">
<path style=" stroke:none;fill-rule:nonzero;fill:rgb(27.450982%,29.411766%,30.588236%);fill-opacity:1;" d="M 3.601562 2.398438 C 2.9375 2.398438 2.398438 2.9375 2.398438 3.601562 L 2.398438 26.398438 C 2.398438 27.0625 2.9375 27.601562 3.601562 27.601562 L 26.398438 27.601562 C 27.0625 27.601562 27.601562 27.0625 27.601562 26.398438 L 27.601562 3.601562 C 27.601562 2.9375 27.0625 2.398438 26.398438 2.398438 Z M 7.492188 8.398438 L 8.898438 8.398438 L 10.351562 14.785156 C 10.707031 16.410156 11 17.859375 11.214844 19.230469 L 11.253906 19.230469 C 11.46875 17.898438 11.769531 16.449219 12.148438 14.785156 L 13.667969 8.398438 L 15.070312 8.398438 L 15.601562 21.601562 L 14.527344 21.601562 L 14.3125 15.804688 C 14.25 13.960938 14.171875 11.75 14.1875 10.105469 L 14.148438 10.105469 C 13.855469 11.652344 13.503906 13.296875 13.074219 15.117188 L 11.566406 21.523438 L 10.734375 21.523438 L 9.355469 15.234375 C 8.949219 13.375 8.609375 11.671875 8.367188 10.105469 L 8.339844 10.105469 C 8.316406 11.75 8.253906 13.960938 8.175781 15.941406 L 7.949219 21.601562 L 6.898438 21.601562 Z M 20.117188 12 C 22.714844 12 23.402344 14.773438 23.402344 16.238281 L 23.402344 16.839844 L 18.003906 16.839844 C 18.003906 17.566406 18.113281 18.875 18.839844 19.683594 C 19.273438 20.164062 19.867188 20.398438 20.652344 20.398438 C 21.574219 20.398438 22.53125 19.945312 22.542969 19.941406 L 23.0625 21.019531 C 23.015625 21.042969 21.851562 21.601562 20.652344 21.601562 C 19.519531 21.601562 18.605469 21.222656 17.941406 20.480469 C 16.613281 18.992188 16.796875 16.546875 16.832031 16.210938 C 16.839844 14.734375 17.535156 12 20.117188 12 Z M 20.117188 13.199219 C 18.621094 13.199219 18.199219 14.75 18.078125 15.640625 L 22.15625 15.640625 C 22.039062 14.75 21.613281 13.199219 20.117188 13.199219 Z M 20.117188 13.199219 "/>
</g>
</svg>
