<?xml version="1.0" encoding="UTF-8"?>
<svg xmlns="http://www.w3.org/2000/svg" xmlns:xlink="http://www.w3.org/1999/xlink" viewBox="0 0 30 30" width="30px" height="30px">
<g id="surface200967260">
<path style=" stroke:none;fill-rule:nonzero;fill:rgb(27.450982%,29.411766%,30.19608%);fill-opacity:1;" d="M 5.398438 2.398438 C 3.742188 2.398438 2.398438 3.742188 2.398438 5.398438 L 2.398438 24.601562 C 2.398438 26.257812 3.742188 27.601562 5.398438 27.601562 L 24.601562 27.601562 C 26.257812 27.601562 27.601562 26.257812 27.601562 24.601562 L 27.601562 5.398438 C 27.601562 3.742188 26.257812 2.398438 24.601562 2.398438 Z M 9 4.800781 L 10.441406 4.800781 L 11.398438 7.199219 L 12.359375 4.800781 L 13.800781 4.800781 L 12 9 L 12 11.398438 L 10.800781 11.398438 L 10.800781 8.992188 C 10.441406 8.027344 9.246094 5.40625 9 4.800781 Z M 15 6.601562 C 15.535156 6.601562 16.0625 6.761719 16.398438 7.167969 C 16.65625 7.464844 16.800781 7.9375 16.800781 8.5625 L 16.800781 9.4375 C 16.800781 10.0625 16.679688 10.496094 16.429688 10.789062 C 16.09375 11.191406 15.535156 11.398438 15 11.398438 C 14.464844 11.398438 13.921875 11.191406 13.585938 10.789062 C 13.328125 10.496094 13.199219 10.0625 13.199219 9.4375 L 13.199219 8.566406 C 13.199219 7.945312 13.339844 7.464844 13.601562 7.167969 C 13.9375 6.761719 14.394531 6.601562 15 6.601562 Z M 17.398438 6.601562 L 18.601562 6.601562 L 18.601562 10.199219 C 18.628906 10.363281 18.804688 10.433594 18.964844 10.433594 C 19.210938 10.433594 19.523438 10.148438 19.800781 9.828125 L 19.800781 6.601562 L 21 6.601562 L 21 11.398438 L 19.800781 11.398438 L 19.800781 10.570312 C 19.3125 11.046875 18.898438 11.402344 18.355469 11.382812 C 17.957031 11.371094 17.683594 11.226562 17.542969 10.9375 C 17.460938 10.769531 17.398438 10.5 17.398438 10.105469 Z M 15 7.570312 C 14.917969 7.570312 14.839844 7.589844 14.765625 7.621094 C 14.695312 7.652344 14.628906 7.695312 14.574219 7.753906 C 14.519531 7.808594 14.476562 7.875 14.445312 7.945312 C 14.417969 8.019531 14.398438 8.101562 14.398438 8.183594 L 14.398438 9.871094 C 14.398438 10.039062 14.46875 10.191406 14.574219 10.300781 C 14.628906 10.359375 14.695312 10.402344 14.765625 10.433594 C 14.839844 10.464844 14.917969 10.484375 15 10.484375 C 15.082031 10.484375 15.160156 10.464844 15.234375 10.433594 C 15.449219 10.339844 15.601562 10.121094 15.601562 9.871094 L 15.601562 8.183594 C 15.601562 7.847656 15.328125 7.570312 15 7.570312 Z M 14.992188 13.199219 L 15.003906 13.199219 C 15.003906 13.199219 19.03125 13.199219 21.71875 13.390625 C 22.097656 13.433594 22.914062 13.441406 23.644531 14.191406 C 24.222656 14.753906 24.40625 16.050781 24.40625 16.050781 C 24.40625 16.050781 24.601562 16.96875 24.601562 18.484375 L 24.601562 19.90625 C 24.601562 21.425781 24.40625 22.34375 24.40625 22.34375 C 24.40625 22.34375 24.222656 23.640625 23.644531 24.203125 C 22.914062 24.953125 22.097656 24.960938 21.71875 25 C 19.03125 25.195312 15 25.199219 15 25.199219 C 15 25.199219 10.007812 25.152344 8.472656 25.007812 C 8.046875 24.929688 7.085938 24.953125 6.355469 24.210938 C 5.777344 23.640625 5.59375 22.34375 5.59375 22.34375 C 5.59375 22.34375 5.398438 21.425781 5.398438 19.90625 L 5.398438 18.484375 C 5.398438 16.96875 5.59375 16.050781 5.59375 16.050781 C 5.59375 16.050781 5.777344 14.753906 6.355469 14.191406 C 7.085938 13.441406 7.902344 13.433594 8.28125 13.390625 C 10.96875 13.199219 14.996094 13.199219 14.996094 13.199219 Z M 7.199219 15.601562 L 7.199219 16.789062 L 8.398438 16.789062 L 8.398438 22.800781 L 9.601562 22.800781 L 9.601562 16.789062 L 10.800781 16.789062 L 10.800781 15.601562 Z M 15 15.601562 L 15 22.800781 L 16.199219 22.800781 L 16.199219 22.050781 C 16.578125 22.519531 17.070312 22.800781 17.476562 22.800781 C 17.925781 22.800781 18.320312 22.558594 18.472656 22.09375 C 18.542969 21.839844 18.59375 21.605469 18.601562 21.074219 L 18.601562 19.425781 C 18.601562 18.832031 18.519531 18.386719 18.445312 18.132812 C 18.292969 17.664062 17.925781 17.402344 17.476562 17.398438 C 16.886719 17.394531 16.648438 17.699219 16.199219 18.226562 L 16.199219 15.601562 Z M 10.800781 17.398438 L 10.800781 21.410156 C 10.800781 21.84375 10.859375 22.136719 10.9375 22.324219 C 11.070312 22.632812 11.339844 22.800781 11.722656 22.800781 C 12.160156 22.800781 12.726562 22.492188 13.199219 21.980469 L 13.199219 22.800781 L 14.398438 22.800781 L 14.398438 17.398438 L 13.199219 17.398438 L 13.199219 21.160156 C 12.9375 21.511719 12.550781 21.773438 12.3125 21.773438 C 12.15625 21.773438 12.03125 21.707031 12 21.535156 L 12 17.398438 Z M 21.015625 17.398438 C 20.414062 17.398438 19.941406 17.589844 19.597656 17.949219 C 19.347656 18.214844 19.199219 18.648438 19.199219 19.210938 L 19.199219 21.050781 C 19.199219 21.609375 19.359375 22 19.613281 22.261719 C 19.957031 22.621094 20.425781 22.800781 21.046875 22.800781 C 21.664062 22.800781 22.152344 22.613281 22.480469 22.230469 C 22.621094 22.0625 22.714844 21.871094 22.753906 21.660156 C 22.765625 21.566406 22.800781 21.304688 22.800781 21 L 21.601562 21 L 21.601562 21.480469 C 21.601562 21.757812 21.332031 21.984375 21 21.984375 C 20.667969 21.984375 20.398438 21.757812 20.398438 21.480469 L 20.398438 20.398438 L 22.800781 20.398438 L 22.800781 19.1875 C 22.800781 18.625 22.664062 18.214844 22.414062 17.949219 C 22.082031 17.589844 21.613281 17.398438 21.015625 17.398438 Z M 21 18.269531 C 21.332031 18.269531 21.601562 18.496094 21.601562 18.773438 L 21.601562 19.570312 L 20.398438 19.570312 L 20.398438 18.773438 C 20.398438 18.492188 20.667969 18.269531 21 18.269531 Z M 16.933594 18.449219 C 17.257812 18.449219 17.398438 18.648438 17.398438 19.273438 L 17.398438 20.925781 C 17.398438 21.550781 17.257812 21.765625 16.933594 21.765625 C 16.746094 21.765625 16.390625 21.640625 16.199219 21.449219 L 16.199219 18.824219 C 16.390625 18.636719 16.746094 18.449219 16.933594 18.449219 Z M 16.933594 18.449219 "/>
</g>
</svg>
