<?xml version="1.0" encoding="UTF-8"?>
<svg xmlns="http://www.w3.org/2000/svg" xmlns:xlink="http://www.w3.org/1999/xlink" viewBox="0 0 30 30" width="30px" height="30px">
<g id="surface228830052">
<path style=" stroke:none;fill-rule:nonzero;fill:rgb(27.450982%,29.411766%,30.588236%);fill-opacity:1;" d="M 24.601562 2.398438 L 5.398438 2.398438 C 3.742188 2.398438 2.398438 3.742188 2.398438 5.398438 L 2.398438 24.601562 C 2.398438 26.257812 3.742188 27.601562 5.398438 27.601562 L 24.601562 27.601562 C 26.257812 27.601562 27.601562 26.257812 27.601562 24.601562 L 27.601562 5.398438 C 27.601562 3.742188 26.257812 2.398438 24.601562 2.398438 Z M 10.199219 12 L 10.199219 23.398438 L 6.601562 23.398438 L 6.601562 12 Z M 6.601562 8.683594 C 6.601562 7.84375 7.320312 7.199219 8.398438 7.199219 C 9.480469 7.199219 10.15625 7.84375 10.199219 8.683594 C 10.199219 9.523438 9.527344 10.199219 8.398438 10.199219 C 7.320312 10.199219 6.601562 9.523438 6.601562 8.683594 Z M 23.398438 23.398438 L 19.800781 23.398438 C 19.800781 23.398438 19.800781 17.84375 19.800781 17.398438 C 19.800781 16.199219 19.199219 15 17.699219 14.976562 L 17.652344 14.976562 C 16.199219 14.976562 15.601562 16.210938 15.601562 17.398438 C 15.601562 17.945312 15.601562 23.398438 15.601562 23.398438 L 12 23.398438 L 12 12 L 15.601562 12 L 15.601562 13.535156 C 15.601562 13.535156 16.757812 12 19.085938 12 C 21.46875 12 23.398438 13.636719 23.398438 16.957031 Z M 23.398438 23.398438 "/>
</g>
</svg>
