<?xml version="1.0" encoding="UTF-8"?>
<svg xmlns="http://www.w3.org/2000/svg" xmlns:xlink="http://www.w3.org/1999/xlink" viewBox="0 0 30 30" width="30px" height="30px">
<g id="surface178896513">
<path style=" stroke:none;fill-rule:nonzero;fill:rgb(27.450982%,29.411766%,30.19608%);fill-opacity:1;" d="M 28 6.9375 C 27.042969 7.363281 26.015625 7.648438 24.9375 7.777344 C 26.039062 7.117188 26.882812 6.070312 27.28125 4.824219 C 26.25 5.4375 25.109375 5.882812 23.894531 6.121094 C 22.921875 5.085938 21.535156 4.4375 20 4.4375 C 17.054688 4.4375 14.664062 6.824219 14.664062 9.769531 C 14.664062 10.1875 14.714844 10.597656 14.804688 10.984375 C 10.371094 10.761719 6.441406 8.640625 3.808594 5.410156 C 3.351562 6.199219 3.089844 7.113281 3.089844 8.09375 C 3.089844 9.945312 4.027344 11.578125 5.460938 12.53125 C 4.585938 12.503906 3.761719 12.265625 3.042969 11.867188 C 3.042969 11.890625 3.042969 11.910156 3.042969 11.933594 C 3.042969 14.519531 4.882812 16.675781 7.324219 17.164062 C 6.875 17.285156 6.402344 17.351562 5.917969 17.351562 C 5.574219 17.351562 5.238281 17.316406 4.914062 17.253906 C 5.59375 19.375 7.5625 20.917969 9.898438 20.960938 C 8.070312 22.390625 5.773438 23.242188 3.273438 23.242188 C 2.84375 23.242188 2.417969 23.21875 2 23.167969 C 4.359375 24.683594 7.164062 25.566406 10.175781 25.566406 C 19.988281 25.566406 25.351562 17.4375 25.351562 10.386719 C 25.351562 10.15625 25.347656 9.925781 25.335938 9.699219 C 26.378906 8.945312 27.285156 8.007812 28 6.9375 Z M 28 6.9375 "/>
</g>
</svg>
